# xmcd
#
# Track frame offsets: 
#        150
#        16317
#        36941
#        54895
#        74390
#        96725
#        113521
#        131429
#        148913
#        167350
#
# Disc length: 2484 seconds
#
# Revision: 0
# Processed by: cddbd v1.5.1PL0 Copyright (c) Steve Scherf et al.
# Submitted via: ExactAudioCopy v0.95a5
#
DISCID=8509b20a
DTITLE=Clary Soto - Te Voy A Devorar
DYEAR=2005
DGENRE=Latin
TTITLE0=Te Voy A Devorar
TTITLE1=No Me Ames (f. Raulín Rodríguez)
TTITLE2=No Entiendo
TTITLE3=Todo, Todo, Todo
TTITLE4=Mi Talismán
TTITLE5=De Qué Estoy Hecha
TTITLE6=Júrame
TTITLE7=Me Siento Sola
TTITLE8=No Te Puedo Olvidar
TTITLE9=La Aventura (Merengue)
EXTD=
EXTT0=
EXTT1=
EXTT2=
EXTT3=
EXTT4=
EXTT5=
EXTT6=
EXTT7=
EXTT8=
EXTT9=
PLAYORDER=
